{"accessors" : [{"bufferView" : 0, "byteOffset" : 0, "componentType" : 5123, "count" : 960, "type" : "SCALAR", "max" : [777], "min" : [0]}, {"bufferView" : 1, "byteOffset" : 0, "componentType" : 5126, "count" : 778, "type" : "VEC3", "max" : [0.43762925267219543, 1.3845586776733398, 0.7354583740234375], "min" : [0.008670642971992493, -4.6026811599731445, -0.9876844882965088], "name" : "POSITION"}, {"bufferView" : 1, "byteOffset" : 12, "componentType" : 5126, "count" : 778, "type" : "VEC3", "max" : [0.9993618130683899, 0.9919474124908447, 0.9917207360267639], "min" : [-0.9996955394744873, -0.9737716913223267, -0.9967191219329834], "name" : "NORMAL"}, {"bufferView" : 1, "byteOffset" : 24, "componentType" : 5126, "count" : 778, "type" : "VEC2", "max" : [0.9763734936714172, 0.999115526676178], "min" : [0.002202911302447319, 0.000964045524597168], "name" : "TEXCOORD_0"}, {"bufferView" : 0, "byteOffset" : 1920, "componentType" : 5123, "count" : 3936, "type" : "SCALAR", "max" : [3204], "min" : [0]}, {"bufferView" : 2, "byteOffset" : 0, "componentType" : 5126, "count" : 3205, "type" : "VEC3", "max" : [4.883058071136475, 2.204076051712036, 0.17393554747104645], "min" : [-0.03176495432853699, -2.2076375484466553, -0.9396538734436035], "name" : "POSITION"}, {"bufferView" : 2, "byteOffset" : 12, "componentType" : 5126, "count" : 3205, "type" : "VEC3", "max" : [1.0000044107437134, 1.0000044107437134, 1.0000044107437134], "min" : [-1.0000044107437134, -1.0000044107437134, -1.0000041723251343], "name" : "NORMAL"}, {"bufferView" : 2, "byteOffset" : 24, "componentType" : 5126, "count" : 3205, "type" : "VEC2", "max" : [0.9978675246238708, 0.9992136359214783], "min" : [0.0006103564519435167, 0.0005925297737121582], "name" : "TEXCOORD_0"}, {"bufferView" : 2, "byteOffset" : 32, "componentType" : 5126, "count" : 3205, "type" : "VEC2", "max" : [0.9978675246238708, 0.9992136359214783], "min" : [0.0006103564519435167, 0.0005925297737121582], "name" : "TEXCOORD_1"}], "asset" : {"generator" : "Aspose.3D 25.1.0", "version" : "2.0"}, "buffers" : [{"uri" : "data:application/octet-stream;base64,", "byteLength" : 162900}], "bufferViews" : [{"buffer" : 0, "byteOffset" : 0, "byteLength" : 9792, "target" : 34963}, {"buffer" : 0, "byteOffset" : 9796, "byteLength" : 24896, "byteStride" : 32, "target" : 34962}, {"buffer" : 0, "byteOffset" : 34696, "byteLength" : 128200, "byteStride" : 40, "target" : 34962}], "images" : [{"uri" : "D:\\Trabajo\\diego\\Substance\\MOdelo_1\\tEXT\\MT_Montura_Normal_DirectX_1001.png"}, {"uri" : "D:\\Trabajo\\diego\\Substance\\MOdelo_1\\tEXT\\crital_Base_color_1001.png"}, {"uri" : "D:\\Trabajo\\diego\\Substance\\MOdelo_1\\tEXT\\MT_Montura_Normal_1001.png"}, {"uri" : "D:\\Trabajo\\diego\\Substance\\MOdelo_1\\tEXT\\MT_Montura_Base_color_1001.png"}], "materials" : [{"name" : "crital", "pbrMetallicRoughness" : {"baseColorFactor" : [1, 1, 1, 1], "baseColorTexture" : {"index" : 1, "texCoord" : 0}, "metallicFactor" : 1, "roughnessFactor" : 1}, "normalTexture" : {"index" : 0, "texCoord" : 0, "scale" : 1}, "emissiveFactor" : [1, 1, 1], "alphaMode" : "OPAQUE", "doubleSided" : false}, {"name" : "MT_Montura.001", "pbrMetallicRoughness" : {"baseColorFactor" : [1, 1, 1, 1], "baseColorTexture" : {"index" : 3, "texCoord" : 0}, "metallicFactor" : 1, "roughnessFactor" : 1}, "normalTexture" : {"index" : 2, "texCoord" : 0, "scale" : 1}, "emissiveFactor" : [1, 1, 1], "alphaMode" : "OPAQUE", "doubleSided" : false}], "meshes" : [{"primitives" : [{"attributes" : {"POSITION" : 1, "NORMAL" : 2, "TEXCOORD_0" : 3}, "indices" : 0, "material" : 0, "mode" : 4}], "name" : "Cube.003"}, {"primitives" : [{"attributes" : {"POSITION" : 5, "NORMAL" : 6, "TEXCOORD_0" : 7, "TEXCOORD_1" : 8}, "indices" : 4, "material" : 1, "mode" : 4}], "name" : "Cube.005"}], "nodes" : [{"matrix" : [64.08666656583594, 5.893850327036235, 1.9159220034476576, 0, 1.9157994907101656, 0.08922839257837642, -64.35705719598114, 0, -5.893889452613562, 64.11522949132736, -0.08655789725360669, 0, 144.83424377441406, -2.903082847595215, -105.51753997802734, 1], "mesh" : 0, "name" : "Cristales_low"}, {"matrix" : [100, 0, 0, 0, 0, -1.6292067955264296E-05, -99.99999999999866, 0, 0, 99.99999999999866, -1.6292067955264296E-05, 0, 150.49017333984375, 30.76176643371582, 0.20224452018737793, 1], "mesh" : 1, "name" : "GAFA_1_lOW"}], "samplers" : [{"magFilter" : 9729, "minFilter" : 9729, "wrapS" : 10497, "wrapT" : 10497}, {"magFilter" : 9729, "minFilter" : 9729, "wrapS" : 10497, "wrapT" : 10497}, {"magFilter" : 9729, "minFilter" : 9729, "wrapS" : 10497, "wrapT" : 10497}, {"magFilter" : 9729, "minFilter" : 9729, "wrapS" : 10497, "wrapT" : 10497}], "scene" : 0, "scenes" : [{"nodes" : [0, 1]}], "textures" : [{"sampler" : 0, "source" : 0, "name" : "normalmap_texture"}, {"sampler" : 1, "source" : 1, "name" : "base_color_texture"}, {"sampler" : 2, "source" : 2, "name" : "normalmap_texture"}, {"sampler" : 3, "source" : 3, "name" : "base_color_texture"}]}