{"accessors" : [{"bufferView" : 0, "byteOffset" : 0, "componentType" : 5123, "count" : 2802, "type" : "SCALAR", "max" : [1867], "min" : [0]}, {"bufferView" : 1, "byteOffset" : 0, "componentType" : 5126, "count" : 1868, "type" : "VEC3", "max" : [0.43722039461135864, 1.3858345746994019, 0.7356660962104797], "min" : [0.007648170460015535, -4.608636856079102, -0.9889915585517883], "name" : "POSITION"}, {"bufferView" : 1, "byteOffset" : 12, "componentType" : 5126, "count" : 1868, "type" : "VEC3", "max" : [0.9998762011528015, 0.9995611906051636, 0.999588668346405], "min" : [-0.9998121857643127, -0.9674777388572693, -0.9990964531898499], "name" : "NORMAL"}, {"bufferView" : 1, "byteOffset" : 24, "componentType" : 5126, "count" : 1868, "type" : "VEC2", "max" : [0.9764178395271301, 0.999115526676178], "min" : [0.0002394437324255705, 0.000964045524597168], "name" : "TEXCOORD_0"}, {"bufferView" : 0, "byteOffset" : 5604, "componentType" : 5123, "count" : 44760, "type" : "SCALAR", "max" : [29839], "min" : [0]}, {"bufferView" : 2, "byteOffset" : 0, "componentType" : 5126, "count" : 29840, "type" : "VEC3", "max" : [4.875002861022949, 2.2049856185913086, 0.17013953626155853], "min" : [-0.029882745817303658, -2.2049856185913086, -0.929015040397644], "name" : "POSITION"}, {"bufferView" : 2, "byteOffset" : 12, "componentType" : 5126, "count" : 29840, "type" : "VEC3", "max" : [0.999988853931427, 1.0000042915344238, 1.0000014305114746], "min" : [-1.0000044107437134, -1.0000042915344238, -1.0000014305114746], "name" : "NORMAL"}, {"bufferView" : 2, "byteOffset" : 24, "componentType" : 5126, "count" : 29840, "type" : "VEC2", "max" : [0.9978261590003967, 0.999335527420044], "min" : [0.0006103565101511776, 0.0005927681922912598], "name" : "TEXCOORD_0"}, {"bufferView" : 2, "byteOffset" : 32, "componentType" : 5126, "count" : 29840, "type" : "VEC2", "max" : [0.9978261590003967, 0.999335527420044], "min" : [0.0006103565101511776, 0.0005927681922912598], "name" : "TEXCOORD_1"}], "asset" : {"generator" : "Aspose.3D 25.1.0", "version" : "2.0"}, "buffers" : [{"uri" : "data:application/octet-stream;base64,", "byteLength" : 1348512}], "bufferViews" : [{"buffer" : 0, "byteOffset" : 0, "byteLength" : 95124, "target" : 34963}, {"buffer" : 0, "byteOffset" : 95128, "byteLength" : 59776, "byteStride" : 32, "target" : 34962}, {"buffer" : 0, "byteOffset" : 154908, "byteLength" : 1193600, "byteStride" : 40, "target" : 34962}], "images" : [{"uri" : "D:\\Trabajo\\diego\\Substance\\MOdelo_1\\tEXT\\MT_Montura_Normal_DirectX_1001.png"}, {"uri" : "D:\\Trabajo\\diego\\Substance\\MOdelo_1\\tEXT\\crital_Base_color_1001.png"}, {"uri" : "D:\\Trabajo\\diego\\Substance\\MOdelo_1\\tEXT\\MT_Montura_Normal_1001.png"}, {"uri" : "D:\\Trabajo\\diego\\Substance\\MOdelo_1\\tEXT\\MT_Montura_Base_color_1001.png"}], "materials" : [{"name" : "crital.001", "pbrMetallicRoughness" : {"baseColorFactor" : [1, 1, 1, 1], "baseColorTexture" : {"index" : 1, "texCoord" : 0}, "metallicFactor" : 1, "roughnessFactor" : 1}, "normalTexture" : {"index" : 0, "texCoord" : 0, "scale" : 1}, "emissiveFactor" : [1, 1, 1], "alphaMode" : "OPAQUE", "doubleSided" : false}, {"name" : "MT_Montura.001", "pbrMetallicRoughness" : {"baseColorFactor" : [1, 1, 1, 1], "baseColorTexture" : {"index" : 3, "texCoord" : 0}, "metallicFactor" : 1, "roughnessFactor" : 1}, "normalTexture" : {"index" : 2, "texCoord" : 0, "scale" : 1}, "emissiveFactor" : [1, 1, 1], "alphaMode" : "OPAQUE", "doubleSided" : false}], "meshes" : [{"primitives" : [{"attributes" : {"POSITION" : 1, "NORMAL" : 2, "TEXCOORD_0" : 3}, "indices" : 0, "material" : 0, "mode" : 4}], "name" : "Cube.006"}, {"primitives" : [{"attributes" : {"POSITION" : 5, "NORMAL" : 6, "TEXCOORD_0" : 7, "TEXCOORD_1" : 8}, "indices" : 4, "material" : 1, "mode" : 4}], "name" : "Cube.013"}], "nodes" : [{"matrix" : [64.08666656583594, 5.893850327036235, 1.9159220034476576, 0, 1.9157994907101656, 0.08922839257837642, -64.35705719598114, 0, -5.893889452613562, 64.11522949132736, -0.08655789725360669, 0, 144.83424377441406, -2.903082847595215, -105.51753997802734, 1], "mesh" : 0, "name" : "Cristales_alta.001"}, {"matrix" : [100, 0, 0, 0, 0, -1.6292067955264296E-05, -99.99999999999866, 0, 0, 99.99999999999866, -1.6292067955264296E-05, 0, 150.49017333984375, 30.76176643371582, 0.20224452018737793, 1], "mesh" : 1, "name" : "gafas.001"}], "samplers" : [{"magFilter" : 9729, "minFilter" : 9729, "wrapS" : 10497, "wrapT" : 10497}, {"magFilter" : 9729, "minFilter" : 9729, "wrapS" : 10497, "wrapT" : 10497}, {"magFilter" : 9729, "minFilter" : 9729, "wrapS" : 10497, "wrapT" : 10497}, {"magFilter" : 9729, "minFilter" : 9729, "wrapS" : 10497, "wrapT" : 10497}], "scene" : 0, "scenes" : [{"nodes" : [0, 1]}], "textures" : [{"sampler" : 0, "source" : 0, "name" : "normalmap_texture"}, {"sampler" : 1, "source" : 1, "name" : "base_color_texture"}, {"sampler" : 2, "source" : 2, "name" : "normalmap_texture"}, {"sampler" : 3, "source" : 3, "name" : "base_color_texture"}]}